<?xml version="1.0" standalone="no"?>
<svg xmlns="http://www.w3.org/2000/svg" viewBox="0 0 184.424 29" width="184.424" height="29"><g fill="#2a9d8f" color="#2a9d8f" transform="translate(0, 0) scale(0.6041667)"><svg width="44.0" height="48.0" x="0.0" y="0.0" viewBox="0 0 44 48"><path fill="currentColor" fill-rule="evenodd" d="M26.592 7.876c-1.442 3.958-2.352 9.744-2.352 16.195 0 6.393.894 12.136 2.311 16.09-.691.939-1.454 1.46-2.256 1.46-3.13-.003-5.665-7.895-5.665-17.634 0-9.734 2.535-17.63 5.661-17.63.82.001 1.599.546 2.3 1.52M37.084 24.07c.003 6.693-1.663 12.123-3.716 12.123s-3.717-5.43-3.717-12.121c0-6.696 1.664-12.124 3.717-12.127 2.056.003 3.719 5.43 3.716 12.125M21.51 0c2.12.002 4.037 2.67 5.43 6.98 1.172-2.82 2.642-4.504 4.238-4.504 3.83-.005 6.936 9.668 6.934 21.594.002 11.926-3.106 21.597-6.937 21.596-1.607 0-3.089-1.711-4.265-4.573-1.389 4.256-3.296 6.882-5.397 6.884-4.257-.002-7.708-10.74-7.708-23.99C13.805 10.745 17.257 0 21.51 0zm-6.145 2.36c-5.194 4.504-8.651 12.467-8.651 21.535 0 9.067 3.455 17.03 8.655 21.531C6.292 41.661-.003 33.435 0 23.894 0 14.356 6.292 6.129 15.365 2.361zm26.647 14.91c1.098 0 1.986 2.9 1.988 6.483-.002 3.577-.891 6.48-1.99 6.48-1.096 0-1.985-2.9-1.987-6.482-.002-3.58.891-6.482 1.99-6.482z"></path></svg></g><line x1="38.584" y1="1" x2="38.584" y2="28" stroke="#264653" stroke-linecap="round"></line><path fill="#264653" fill-rule="nonzero" d="M5.30 17.40L0 17.40L0 0.89L5.30 0.89L5.30 17.40ZM17.50 4.44Q19.70 4.44 20.81 5.66Q21.91 6.89 21.91 9.19L21.91 9.19L21.91 17.40L17.14 17.40L17.14 9.77Q17.14 8.95 16.72 8.46Q16.30 7.97 15.53 7.97L15.53 7.97Q14.64 7.97 14.09 8.54Q13.54 9.12 13.54 9.96L13.54 9.96L13.54 17.40L8.76 17.40L8.76 4.73L12.67 4.73L12.98 6.65Q13.73 5.64 14.94 5.04Q16.15 4.44 17.50 4.44L17.50 4.44ZM48 5.11L42.60 5.11L42.60 17.40L37.30 17.40L37.30 5.11L31.87 5.11L31.87 0.89L48 0.89L48 5.11ZM55.51 6.05Q56.28 5.28 57.31 4.86Q58.34 4.44 59.47 4.44L59.47 4.44Q61.68 4.44 62.78 5.66Q63.89 6.89 63.89 9.19L63.89 9.19L63.89 17.40L59.11 17.40L59.11 9.77Q59.11 8.95 58.69 8.46Q58.27 7.97 57.50 7.97L57.50 7.97Q56.62 7.97 56.06 8.54Q55.51 9.12 55.51 9.96L55.51 9.96L55.51 17.40L50.74 17.40L50.74 0L55.51 0L55.51 6.05ZM73.30 4.44Q76.78 4.44 78.61 6.07Q80.45 7.70 80.45 11.06L80.45 11.06L80.45 11.88L70.94 11.88Q70.94 13.25 71.56 13.94Q72.17 14.64 73.49 14.64L73.49 14.64Q74.69 14.64 75.25 14.14Q75.82 13.63 75.82 12.79L75.82 12.79L80.45 12.79Q80.45 15.10 78.70 16.39Q76.94 17.69 73.58 17.69L73.58 17.69Q70.06 17.69 68.11 16.04Q66.17 14.40 66.17 11.06L66.17 11.06Q66.17 7.80 68.06 6.12Q69.96 4.44 73.30 4.44L73.30 4.44ZM73.49 7.49Q71.23 7.49 70.97 9.62L70.97 9.62L75.62 9.62Q75.62 8.64 75.06 8.06Q74.50 7.49 73.49 7.49L73.49 7.49ZM110.52 17.40L105.26 17.40L105.26 11.45Q105.26 10.34 105.35 9.18Q105.43 8.02 105.53 7.22Q105.62 6.43 105.65 6.22L105.65 6.22L105.55 6.22L102.50 17.40L98.35 17.40L95.28 6.24L95.18 6.24Q95.21 6.46 95.32 7.24Q95.42 8.02 95.52 9.18Q95.62 10.34 95.62 11.45L95.62 11.45L95.62 17.40L90.74 17.40L90.74 0.89L98.23 0.89L100.73 10.42L100.82 10.42L103.30 0.89L110.52 0.89L110.52 17.40ZM118.34 3.24L113.57 3.24L113.57 0L118.34 0L118.34 3.24ZM118.34 17.40L113.57 17.40L113.57 4.73L118.34 4.73L118.34 17.40ZM131.09 10.80L135.84 17.40L130.27 17.40L127.87 13.42L127.78 13.42L125.35 17.40L120.05 17.40L124.92 10.68L120.53 4.73L126.14 4.73L128.16 8.09L128.26 8.09L130.27 4.73L135.55 4.73L131.09 10.80Z" transform="translate(48.584, 5.8)"></path></svg>